<?xml version="1.0" encoding="UTF-8" standalone="no"?>
<!DOCTYPE svg PUBLIC "-//W3C//DTD SVG 1.1//EN"
 "http://www.w3.org/Graphics/SVG/1.1/DTD/svg11.dtd">
<!-- Generated by graphviz version 2.39.20160302.1709 (20160302.1709)
 -->
<!-- Title: controllers_diagram Pages: 1 -->
<svg width="670pt" height="755pt"
 viewBox="0.00 0.00 669.76 755.00" xmlns="http://www.w3.org/2000/svg" xmlns:xlink="http://www.w3.org/1999/xlink">
<g id="graph0" class="graph" transform="scale(1 1) rotate(0) translate(242 428)">
<title>controllers_diagram</title>
<polygon fill="transparent" stroke="transparent" points="-242,327 -242,-428 427.759,-428 427.759,327 -242,327"/>
<!-- _diagram_info -->
<g id="node1" class="node">
<title>_diagram_info</title>
<text text-anchor="start" x="93" y="128.4" font-family="Times,serif" font-size="13.00">Controllers diagram</text>
<text text-anchor="start" x="93" y="141.4" font-family="Times,serif" font-size="13.00">Date: Mar 15 2016 &#45; 13:12</text>
<text text-anchor="start" x="93" y="154.4" font-family="Times,serif" font-size="13.00">Migration version: 20150917160245</text>
<text text-anchor="start" x="93" y="167.4" font-family="Times,serif" font-size="13.00">Generated by RailRoady 1.4.2</text>
<text text-anchor="start" x="93" y="180.4" font-family="Times,serif" font-size="13.00">http://railroady.prestonlee.com</text>
</g>
<!-- AccountsController -->
<g id="node2" class="node">
<title>AccountsController</title>
<path fill="none" stroke="black" d="M-209,-221.5C-209,-221.5 -106.579,-221.5 -106.579,-221.5 -100.579,-221.5 -94.5791,-227.5 -94.5791,-233.5 -94.5791,-233.5 -94.5791,-411.5 -94.5791,-411.5 -94.5791,-417.5 -100.579,-423.5 -106.579,-423.5 -106.579,-423.5 -209,-423.5 -209,-423.5 -215,-423.5 -221,-417.5 -221,-411.5 -221,-411.5 -221,-233.5 -221,-233.5 -221,-227.5 -215,-221.5 -209,-221.5"/>
<text text-anchor="middle" x="-157.79" y="-408.3" font-family="Times,serif" font-size="14.00">AccountsController</text>
<polyline fill="none" stroke="black" points="-221,-401.5 -94.5791,-401.5 "/>
<text text-anchor="start" x="-213" y="-386.3" font-family="Times,serif" font-size="14.00">create</text>
<text text-anchor="start" x="-213" y="-372.3" font-family="Times,serif" font-size="14.00">destroy</text>
<text text-anchor="start" x="-213" y="-358.3" font-family="Times,serif" font-size="14.00">edit</text>
<text text-anchor="start" x="-213" y="-344.3" font-family="Times,serif" font-size="14.00">index</text>
<text text-anchor="start" x="-213" y="-330.3" font-family="Times,serif" font-size="14.00">new</text>
<text text-anchor="start" x="-213" y="-316.3" font-family="Times,serif" font-size="14.00">show</text>
<text text-anchor="start" x="-213" y="-302.3" font-family="Times,serif" font-size="14.00">update</text>
<polyline fill="none" stroke="black" points="-221,-295.5 -94.5791,-295.5 "/>
<polyline fill="none" stroke="black" points="-221,-271.5 -94.5791,-271.5 "/>
<text text-anchor="start" x="-213" y="-256.3" font-family="Times,serif" font-size="14.00">_layout</text>
<text text-anchor="start" x="-213" y="-242.3" font-family="Times,serif" font-size="14.00">account_params</text>
<text text-anchor="start" x="-213" y="-228.3" font-family="Times,serif" font-size="14.00">set_account</text>
</g>
<!-- ApplicationController -->
<g id="node3" class="node">
<title>ApplicationController</title>
<path fill="none" stroke="black" d="M267,84.5C267,84.5 382.642,84.5 382.642,84.5 388.642,84.5 394.642,78.5 394.642,72.5 394.642,72.5 394.642,-7.5 394.642,-7.5 394.642,-13.5 388.642,-19.5 382.642,-19.5 382.642,-19.5 267,-19.5 267,-19.5 261,-19.5 255,-13.5 255,-7.5 255,-7.5 255,72.5 255,72.5 255,78.5 261,84.5 267,84.5"/>
<text text-anchor="middle" x="324.821" y="-4.3" font-family="Times,serif" font-size="14.00">ApplicationController</text>
<polyline fill="none" stroke="black" points="255,2.5 394.642,2.5 "/>
<polyline fill="none" stroke="black" points="255,26.5 394.642,26.5 "/>
<text text-anchor="start" x="263" y="41.7" font-family="Times,serif" font-size="14.00">no_visitors!</text>
<text text-anchor="start" x="263" y="55.7" font-family="Times,serif" font-size="14.00">set_viewing_as</text>
<polyline fill="none" stroke="black" points="255,62.5 394.642,62.5 "/>
<text text-anchor="start" x="263" y="77.7" font-family="Times,serif" font-size="14.00">_layout</text>
</g>
<!-- BanksController -->
<g id="node4" class="node">
<title>BanksController</title>
<path fill="none" stroke="black" d="M-56,-136.5C-56,-136.5 40.9658,-136.5 40.9658,-136.5 46.9658,-136.5 52.9658,-142.5 52.9658,-148.5 52.9658,-148.5 52.9658,-340.5 52.9658,-340.5 52.9658,-346.5 46.9658,-352.5 40.9658,-352.5 40.9658,-352.5 -56,-352.5 -56,-352.5 -62,-352.5 -68,-346.5 -68,-340.5 -68,-340.5 -68,-148.5 -68,-148.5 -68,-142.5 -62,-136.5 -56,-136.5"/>
<text text-anchor="middle" x="-7.51709" y="-337.3" font-family="Times,serif" font-size="14.00">BanksController</text>
<polyline fill="none" stroke="black" points="-68,-330.5 52.9658,-330.5 "/>
<text text-anchor="start" x="-60" y="-315.3" font-family="Times,serif" font-size="14.00">create</text>
<text text-anchor="start" x="-60" y="-301.3" font-family="Times,serif" font-size="14.00">destroy</text>
<text text-anchor="start" x="-60" y="-287.3" font-family="Times,serif" font-size="14.00">edit</text>
<text text-anchor="start" x="-60" y="-273.3" font-family="Times,serif" font-size="14.00">index</text>
<text text-anchor="start" x="-60" y="-259.3" font-family="Times,serif" font-size="14.00">new</text>
<text text-anchor="start" x="-60" y="-245.3" font-family="Times,serif" font-size="14.00">show</text>
<text text-anchor="start" x="-60" y="-231.3" font-family="Times,serif" font-size="14.00">update</text>
<polyline fill="none" stroke="black" points="-68,-224.5 52.9658,-224.5 "/>
<polyline fill="none" stroke="black" points="-68,-200.5 52.9658,-200.5 "/>
<text text-anchor="start" x="-60" y="-185.3" font-family="Times,serif" font-size="14.00">_layout</text>
<text text-anchor="start" x="-60" y="-171.3" font-family="Times,serif" font-size="14.00">bank_params</text>
<text text-anchor="start" x="-60" y="-157.3" font-family="Times,serif" font-size="14.00">new_bank_params</text>
<text text-anchor="start" x="-60" y="-143.3" font-family="Times,serif" font-size="14.00">set_bank</text>
</g>
<!-- BillsController -->
<g id="node5" class="node">
<title>BillsController</title>
<path fill="none" stroke="black" d="M-226,237.5C-226,237.5 -150,237.5 -150,237.5 -144,237.5 -138,231.5 -138,225.5 -138,225.5 -138,47.5 -138,47.5 -138,41.5 -144,35.5 -150,35.5 -150,35.5 -226,35.5 -226,35.5 -232,35.5 -238,41.5 -238,47.5 -238,47.5 -238,225.5 -238,225.5 -238,231.5 -232,237.5 -226,237.5"/>
<text text-anchor="middle" x="-188" y="50.7" font-family="Times,serif" font-size="14.00">BillsController</text>
<polyline fill="none" stroke="black" points="-238,57.5 -138,57.5 "/>
<text text-anchor="start" x="-230" y="72.7" font-family="Times,serif" font-size="14.00">create</text>
<text text-anchor="start" x="-230" y="86.7" font-family="Times,serif" font-size="14.00">destroy</text>
<text text-anchor="start" x="-230" y="100.7" font-family="Times,serif" font-size="14.00">edit</text>
<text text-anchor="start" x="-230" y="114.7" font-family="Times,serif" font-size="14.00">index</text>
<text text-anchor="start" x="-230" y="128.7" font-family="Times,serif" font-size="14.00">new</text>
<text text-anchor="start" x="-230" y="142.7" font-family="Times,serif" font-size="14.00">show</text>
<text text-anchor="start" x="-230" y="156.7" font-family="Times,serif" font-size="14.00">update</text>
<polyline fill="none" stroke="black" points="-238,163.5 -138,163.5 "/>
<polyline fill="none" stroke="black" points="-238,187.5 -138,187.5 "/>
<text text-anchor="start" x="-230" y="202.7" font-family="Times,serif" font-size="14.00">_layout</text>
<text text-anchor="start" x="-230" y="216.7" font-family="Times,serif" font-size="14.00">bill_params</text>
<text text-anchor="start" x="-230" y="230.7" font-family="Times,serif" font-size="14.00">set_bill</text>
</g>
<!-- DashboardController -->
<g id="node6" class="node">
<title>DashboardController</title>
<path fill="none" stroke="black" d="M63,305.5C63,305.5 173.193,305.5 173.193,305.5 179.193,305.5 185.193,299.5 185.193,293.5 185.193,293.5 185.193,227.5 185.193,227.5 185.193,221.5 179.193,215.5 173.193,215.5 173.193,215.5 63,215.5 63,215.5 57,215.5 51,221.5 51,227.5 51,227.5 51,293.5 51,293.5 51,299.5 57,305.5 63,305.5"/>
<text text-anchor="middle" x="118.097" y="230.7" font-family="Times,serif" font-size="14.00">DashboardController</text>
<polyline fill="none" stroke="black" points="51,237.5 185.193,237.5 "/>
<text text-anchor="start" x="59" y="252.7" font-family="Times,serif" font-size="14.00">index</text>
<polyline fill="none" stroke="black" points="51,259.5 185.193,259.5 "/>
<polyline fill="none" stroke="black" points="51,283.5 185.193,283.5 "/>
<text text-anchor="start" x="59" y="298.7" font-family="Times,serif" font-size="14.00">_layout</text>
</g>
<!-- ExclusionsController -->
<g id="node7" class="node">
<title>ExclusionsController</title>
<path fill="none" stroke="black" d="M165,-153.5C165,-153.5 275.986,-153.5 275.986,-153.5 281.986,-153.5 287.986,-159.5 287.986,-165.5 287.986,-165.5 287.986,-343.5 287.986,-343.5 287.986,-349.5 281.986,-355.5 275.986,-355.5 275.986,-355.5 165,-355.5 165,-355.5 159,-355.5 153,-349.5 153,-343.5 153,-343.5 153,-165.5 153,-165.5 153,-159.5 159,-153.5 165,-153.5"/>
<text text-anchor="middle" x="220.493" y="-340.3" font-family="Times,serif" font-size="14.00">ExclusionsController</text>
<polyline fill="none" stroke="black" points="153,-333.5 287.986,-333.5 "/>
<text text-anchor="start" x="161" y="-318.3" font-family="Times,serif" font-size="14.00">create</text>
<text text-anchor="start" x="161" y="-304.3" font-family="Times,serif" font-size="14.00">destroy</text>
<text text-anchor="start" x="161" y="-290.3" font-family="Times,serif" font-size="14.00">edit</text>
<text text-anchor="start" x="161" y="-276.3" font-family="Times,serif" font-size="14.00">index</text>
<text text-anchor="start" x="161" y="-262.3" font-family="Times,serif" font-size="14.00">new</text>
<text text-anchor="start" x="161" y="-248.3" font-family="Times,serif" font-size="14.00">show</text>
<text text-anchor="start" x="161" y="-234.3" font-family="Times,serif" font-size="14.00">update</text>
<polyline fill="none" stroke="black" points="153,-227.5 287.986,-227.5 "/>
<polyline fill="none" stroke="black" points="153,-203.5 287.986,-203.5 "/>
<text text-anchor="start" x="161" y="-188.3" font-family="Times,serif" font-size="14.00">_layout</text>
<text text-anchor="start" x="161" y="-174.3" font-family="Times,serif" font-size="14.00">exclusion_params</text>
<text text-anchor="start" x="161" y="-160.3" font-family="Times,serif" font-size="14.00">set_exclusion</text>
</g>
<!-- HelpController -->
<g id="node8" class="node">
<title>HelpController</title>
<path fill="none" stroke="black" d="M335,322.5C335,322.5 411.759,322.5 411.759,322.5 417.759,322.5 423.759,316.5 423.759,310.5 423.759,310.5 423.759,216.5 423.759,216.5 423.759,210.5 417.759,204.5 411.759,204.5 411.759,204.5 335,204.5 335,204.5 329,204.5 323,210.5 323,216.5 323,216.5 323,310.5 323,310.5 323,316.5 329,322.5 335,322.5"/>
<text text-anchor="middle" x="373.379" y="219.7" font-family="Times,serif" font-size="14.00">HelpController</text>
<polyline fill="none" stroke="black" points="323,226.5 423.759,226.5 "/>
<text text-anchor="start" x="331" y="241.7" font-family="Times,serif" font-size="14.00">index</text>
<text text-anchor="start" x="331" y="255.7" font-family="Times,serif" font-size="14.00">revert_show</text>
<text text-anchor="start" x="331" y="269.7" font-family="Times,serif" font-size="14.00">show</text>
<polyline fill="none" stroke="black" points="323,276.5 423.759,276.5 "/>
<polyline fill="none" stroke="black" points="323,300.5 423.759,300.5 "/>
<text text-anchor="start" x="331" y="315.7" font-family="Times,serif" font-size="14.00">_layout</text>
</g>
<!-- MessagesController -->
<g id="node9" class="node">
<title>MessagesController</title>
<path fill="none" stroke="black" d="M-226,-0.5C-226,-0.5 -122.021,-0.5 -122.021,-0.5 -116.021,-0.5 -110.021,-6.5 -110.021,-12.5 -110.021,-12.5 -110.021,-162.5 -110.021,-162.5 -110.021,-168.5 -116.021,-174.5 -122.021,-174.5 -122.021,-174.5 -226,-174.5 -226,-174.5 -232,-174.5 -238,-168.5 -238,-162.5 -238,-162.5 -238,-12.5 -238,-12.5 -238,-6.5 -232,-0.5 -226,-0.5"/>
<text text-anchor="middle" x="-174.01" y="-159.3" font-family="Times,serif" font-size="14.00">MessagesController</text>
<polyline fill="none" stroke="black" points="-238,-152.5 -110.021,-152.5 "/>
<text text-anchor="start" x="-230" y="-137.3" font-family="Times,serif" font-size="14.00">create</text>
<text text-anchor="start" x="-230" y="-123.3" font-family="Times,serif" font-size="14.00">destroy</text>
<text text-anchor="start" x="-230" y="-109.3" font-family="Times,serif" font-size="14.00">index</text>
<text text-anchor="start" x="-230" y="-95.3" font-family="Times,serif" font-size="14.00">new</text>
<text text-anchor="start" x="-230" y="-81.3" font-family="Times,serif" font-size="14.00">show</text>
<polyline fill="none" stroke="black" points="-238,-74.5 -110.021,-74.5 "/>
<polyline fill="none" stroke="black" points="-238,-50.5 -110.021,-50.5 "/>
<text text-anchor="start" x="-230" y="-35.3" font-family="Times,serif" font-size="14.00">_layout</text>
<text text-anchor="start" x="-230" y="-21.3" font-family="Times,serif" font-size="14.00">message_params</text>
<text text-anchor="start" x="-230" y="-7.3" font-family="Times,serif" font-size="14.00">set_message</text>
</g>
<!-- RecurrencesController -->
<g id="node10" class="node">
<title>RecurrencesController</title>
<path fill="none" stroke="black" d="M-73,118.5C-73,118.5 45.7246,118.5 45.7246,118.5 51.7246,118.5 57.7246,112.5 57.7246,106.5 57.7246,106.5 57.7246,-85.5 57.7246,-85.5 57.7246,-91.5 51.7246,-97.5 45.7246,-97.5 45.7246,-97.5 -73,-97.5 -73,-97.5 -79,-97.5 -85,-91.5 -85,-85.5 -85,-85.5 -85,106.5 -85,106.5 -85,112.5 -79,118.5 -73,118.5"/>
<text text-anchor="middle" x="-13.6377" y="-82.3" font-family="Times,serif" font-size="14.00">RecurrencesController</text>
<polyline fill="none" stroke="black" points="-85,-75.5 57.7246,-75.5 "/>
<text text-anchor="start" x="-77" y="-60.3" font-family="Times,serif" font-size="14.00">advance</text>
<text text-anchor="start" x="-77" y="-46.3" font-family="Times,serif" font-size="14.00">create</text>
<text text-anchor="start" x="-77" y="-32.3" font-family="Times,serif" font-size="14.00">destroy</text>
<text text-anchor="start" x="-77" y="-18.3" font-family="Times,serif" font-size="14.00">edit</text>
<text text-anchor="start" x="-77" y="-4.3" font-family="Times,serif" font-size="14.00">index</text>
<text text-anchor="start" x="-77" y="9.7" font-family="Times,serif" font-size="14.00">new</text>
<text text-anchor="start" x="-77" y="23.7" font-family="Times,serif" font-size="14.00">show</text>
<text text-anchor="start" x="-77" y="37.7" font-family="Times,serif" font-size="14.00">update</text>
<polyline fill="none" stroke="black" points="-85,44.5 57.7246,44.5 "/>
<polyline fill="none" stroke="black" points="-85,68.5 57.7246,68.5 "/>
<text text-anchor="start" x="-77" y="83.7" font-family="Times,serif" font-size="14.00">_layout</text>
<text text-anchor="start" x="-77" y="97.7" font-family="Times,serif" font-size="14.00">recurrence_params</text>
<text text-anchor="start" x="-77" y="111.7" font-family="Times,serif" font-size="14.00">set_recurrence</text>
</g>
<!-- TransactionsController -->
<g id="node11" class="node">
<title>TransactionsController</title>
<path fill="none" stroke="black" d="M97,84.5C97,84.5 217.591,84.5 217.591,84.5 223.591,84.5 229.591,78.5 229.591,72.5 229.591,72.5 229.591,-105.5 229.591,-105.5 229.591,-111.5 223.591,-117.5 217.591,-117.5 217.591,-117.5 97,-117.5 97,-117.5 91,-117.5 85,-111.5 85,-105.5 85,-105.5 85,72.5 85,72.5 85,78.5 91,84.5 97,84.5"/>
<text text-anchor="middle" x="157.295" y="-102.3" font-family="Times,serif" font-size="14.00">TransactionsController</text>
<polyline fill="none" stroke="black" points="85,-95.5 229.591,-95.5 "/>
<text text-anchor="start" x="93" y="-80.3" font-family="Times,serif" font-size="14.00">create</text>
<text text-anchor="start" x="93" y="-66.3" font-family="Times,serif" font-size="14.00">destroy</text>
<text text-anchor="start" x="93" y="-52.3" font-family="Times,serif" font-size="14.00">edit</text>
<text text-anchor="start" x="93" y="-38.3" font-family="Times,serif" font-size="14.00">index</text>
<text text-anchor="start" x="93" y="-24.3" font-family="Times,serif" font-size="14.00">new</text>
<text text-anchor="start" x="93" y="-10.3" font-family="Times,serif" font-size="14.00">show</text>
<text text-anchor="start" x="93" y="3.7" font-family="Times,serif" font-size="14.00">update</text>
<polyline fill="none" stroke="black" points="85,10.5 229.591,10.5 "/>
<polyline fill="none" stroke="black" points="85,34.5 229.591,34.5 "/>
<text text-anchor="start" x="93" y="49.7" font-family="Times,serif" font-size="14.00">_layout</text>
<text text-anchor="start" x="93" y="63.7" font-family="Times,serif" font-size="14.00">set_transaction</text>
<text text-anchor="start" x="93" y="77.7" font-family="Times,serif" font-size="14.00">transaction_params</text>
</g>
<!-- WelcomeController -->
<g id="node12" class="node">
<title>WelcomeController</title>
<path fill="none" stroke="black" d="M-90,271.5C-90,271.5 12.0654,271.5 12.0654,271.5 18.0654,271.5 24.0654,265.5 24.0654,259.5 24.0654,259.5 24.0654,165.5 24.0654,165.5 24.0654,159.5 18.0654,153.5 12.0654,153.5 12.0654,153.5 -90,153.5 -90,153.5 -96,153.5 -102,159.5 -102,165.5 -102,165.5 -102,259.5 -102,259.5 -102,265.5 -96,271.5 -90,271.5"/>
<text text-anchor="middle" x="-38.9673" y="168.7" font-family="Times,serif" font-size="14.00">WelcomeController</text>
<polyline fill="none" stroke="black" points="-102,175.5 24.0654,175.5 "/>
<text text-anchor="start" x="-94" y="190.7" font-family="Times,serif" font-size="14.00">index</text>
<text text-anchor="start" x="-94" y="204.7" font-family="Times,serif" font-size="14.00">invite</text>
<text text-anchor="start" x="-94" y="218.7" font-family="Times,serif" font-size="14.00">reinvite</text>
<polyline fill="none" stroke="black" points="-102,225.5 24.0654,225.5 "/>
<polyline fill="none" stroke="black" points="-102,249.5 24.0654,249.5 "/>
<text text-anchor="start" x="-94" y="264.7" font-family="Times,serif" font-size="14.00">_layout</text>
</g>
</g>
</svg>
