<?xml version="1.0" encoding="UTF-8" standalone="no"?>
<!DOCTYPE svg PUBLIC "-//W3C//DTD SVG 1.1//EN"
 "http://www.w3.org/Graphics/SVG/1.1/DTD/svg11.dtd">
<!-- Generated by graphviz version 2.39.20160302.1709 (20160302.1709)
 -->
<!-- Title: models_diagram Pages: 1 -->
<svg width="522pt" height="369pt"
 viewBox="0.00 0.00 521.74 369.00" xmlns="http://www.w3.org/2000/svg" xmlns:xlink="http://www.w3.org/1999/xlink">
<g id="graph0" class="graph" transform="scale(1 1) rotate(0) translate(4 365)">
<title>models_diagram</title>
<polygon fill="transparent" stroke="transparent" points="-4,4 -4,-365 517.738,-365 517.738,4 -4,4"/>
<!-- _diagram_info -->
<g id="node1" class="node">
<title>_diagram_info</title>
<text text-anchor="start" x="8" y="-346.6" font-family="Times,serif" font-size="13.00">Models diagram</text>
<text text-anchor="start" x="8" y="-333.6" font-family="Times,serif" font-size="13.00">Date: Mar 15 2016 &#45; 13:12</text>
<text text-anchor="start" x="8" y="-320.6" font-family="Times,serif" font-size="13.00">Migration version: 20150917160245</text>
<text text-anchor="start" x="8" y="-307.6" font-family="Times,serif" font-size="13.00">Generated by RailRoady 1.4.2</text>
<text text-anchor="start" x="8" y="-294.6" font-family="Times,serif" font-size="13.00">http://railroady.prestonlee.com</text>
</g>
<!-- Account -->
<g id="node2" class="node">
<title>Account</title>
<ellipse fill="none" stroke="black" cx="155.688" cy="-234" rx="40.1317" ry="18"/>
<text text-anchor="middle" x="155.688" y="-229.8" font-family="Times,serif" font-size="14.00">Account</text>
</g>
<!-- Bill -->
<g id="node4" class="node">
<title>Bill</title>
<ellipse fill="none" stroke="black" cx="223.688" cy="-162" rx="27" ry="18"/>
<text text-anchor="middle" x="223.688" y="-157.8" font-family="Times,serif" font-size="14.00">Bill</text>
</g>
<!-- Account&#45;&gt;Bill -->
<g id="edge1" class="edge">
<title>Account&#45;&gt;Bill</title>
<path fill="none" stroke="#9b77e5" d="M177.005,-211.429C184.95,-203.016 193.974,-193.461 201.956,-185.01"/>
<ellipse fill="none" stroke="#9b77e5" cx="174.206" cy="-214.393" rx="4.00002" ry="4.00002"/>
<polygon fill="#9b77e5" stroke="#9b77e5" points="202.066,-184.893 212.204,-180.713 205.5,-181.258 208.933,-177.623 208.933,-177.623 208.933,-177.623 205.5,-181.258 205.661,-174.533 202.066,-184.893 202.066,-184.893"/>
</g>
<!-- Bank -->
<g id="node3" class="node">
<title>Bank</title>
<ellipse fill="none" stroke="black" cx="280.688" cy="-234" rx="28.5497" ry="18"/>
<text text-anchor="middle" x="280.688" y="-229.8" font-family="Times,serif" font-size="14.00">Bank</text>
</g>
<!-- Bank&#45;&gt;Bill -->
<g id="edge3" class="edge">
<title>Bank&#45;&gt;Bill</title>
<path fill="none" stroke="#3aebce" d="M262.692,-211.268C256.397,-203.317 249.307,-194.362 242.916,-186.288"/>
<ellipse fill="none" stroke="#3aebce" cx="265.271" cy="-214.526" rx="4.00002" ry="4.00002"/>
<polygon fill="#3aebce" stroke="#3aebce" points="242.778,-186.114 240.099,-175.48 239.674,-182.193 236.571,-178.273 236.571,-178.273 236.571,-178.273 239.674,-182.193 233.043,-181.066 242.778,-186.114 242.778,-186.114"/>
</g>
<!-- Transaction -->
<g id="node9" class="node">
<title>Transaction</title>
<ellipse fill="none" stroke="black" cx="328.688" cy="-162" rx="51.5866" ry="18"/>
<text text-anchor="middle" x="328.688" y="-157.8" font-family="Times,serif" font-size="14.00">Transaction</text>
</g>
<!-- Bank&#45;&gt;Transaction -->
<g id="edge2" class="edge">
<title>Bank&#45;&gt;Transaction</title>
<path fill="none" stroke="#b4ccf7" d="M296.28,-210.611C301.109,-203.368 306.458,-195.345 311.395,-187.939"/>
<ellipse fill="none" stroke="#b4ccf7" cx="294.039" cy="-213.973" rx="4.00002" ry="4.00002"/>
<polygon fill="#b4ccf7" stroke="#b4ccf7" points="311.399,-187.934 320.69,-182.109 314.172,-183.773 316.946,-179.613 316.946,-179.613 316.946,-179.613 314.172,-183.773 313.201,-177.117 311.399,-187.934 311.399,-187.934"/>
</g>
<!-- Exclusion -->
<g id="node5" class="node">
<title>Exclusion</title>
<ellipse fill="none" stroke="black" cx="223.688" cy="-18" rx="45.4527" ry="18"/>
<text text-anchor="middle" x="223.688" y="-13.8" font-family="Times,serif" font-size="14.00">Exclusion</text>
</g>
<!-- Bill&#45;&gt;Exclusion -->
<g id="edge5" class="edge">
<title>Bill&#45;&gt;Exclusion</title>
<path fill="none" stroke="#f29d2e" d="M212.318,-136.974C208.821,-128.025 205.434,-117.742 203.688,-108 200.865,-92.251 200.865,-87.749 203.688,-72 205.285,-63.0882 208.255,-53.7238 211.427,-45.3422"/>
<ellipse fill="none" stroke="#f29d2e" cx="213.864" cy="-140.746" rx="4.00002" ry="4.00002"/>
<polygon fill="#f29d2e" stroke="#f29d2e" points="211.437,-45.3167 219.347,-37.7216 213.305,-40.6786 215.173,-36.0406 215.173,-36.0406 215.173,-36.0406 213.305,-40.6786 210.998,-34.3596 211.437,-45.3167 211.437,-45.3167"/>
</g>
<!-- Recurrence -->
<g id="node8" class="node">
<title>Recurrence</title>
<ellipse fill="none" stroke="black" cx="262.688" cy="-90" rx="50.2293" ry="18"/>
<text text-anchor="middle" x="262.688" y="-85.8" font-family="Times,serif" font-size="14.00">Recurrence</text>
</g>
<!-- Bill&#45;&gt;Recurrence -->
<g id="edge4" class="edge">
<title>Bill&#45;&gt;Recurrence</title>
<path fill="none" stroke="#8b1df1" d="M236.836,-137.726C240.499,-130.963 244.499,-123.58 248.233,-116.686"/>
<ellipse fill="none" stroke="#8b1df1" cx="234.835" cy="-141.42" rx="4.00002" ry="4.00002"/>
<polygon fill="#8b1df1" stroke="#8b1df1" points="248.341,-116.485 257.061,-109.836 250.723,-112.089 253.104,-107.692 253.104,-107.692 253.104,-107.692 250.723,-112.089 249.148,-105.549 248.341,-116.485 248.341,-116.485"/>
</g>
<!-- Logical::Payment -->
<g id="node6" class="node">
<title>Logical::Payment</title>
<polygon fill="none" stroke="black" points="413.22,-342.5 298.156,-342.5 298.156,-306.5 413.22,-306.5 413.22,-342.5"/>
<text text-anchor="middle" x="355.688" y="-320.3" font-family="Times,serif" font-size="14.00">Logical::Payment</text>
</g>
<!-- Message -->
<g id="node7" class="node">
<title>Message</title>
<ellipse fill="none" stroke="black" cx="472.688" cy="-324.5" rx="41.1007" ry="18"/>
<text text-anchor="middle" x="472.688" y="-320.3" font-family="Times,serif" font-size="14.00">Message</text>
</g>
<!-- Recurrence&#45;&gt;Exclusion -->
<g id="edge6" class="edge">
<title>Recurrence&#45;&gt;Exclusion</title>
<path fill="none" stroke="#93fea2" d="M249.21,-65.1182C245.705,-58.6465 241.911,-51.6434 238.348,-45.0651"/>
<ellipse fill="none" stroke="#93fea2" cx="251.142" cy="-68.6851" rx="4.00002" ry="4.00002"/>
<polygon fill="#93fea2" stroke="#93fea2" points="238.115,-44.6355 237.309,-33.6992 235.734,-40.239 233.352,-35.8425 233.352,-35.8425 233.352,-35.8425 235.734,-40.239 229.396,-37.9858 238.115,-44.6355 238.115,-44.6355"/>
</g>
<!-- User -->
<g id="node10" class="node">
<title>User</title>
<ellipse fill="none" stroke="black" cx="252.688" cy="-324.5" rx="27" ry="18"/>
<text text-anchor="middle" x="252.688" y="-320.3" font-family="Times,serif" font-size="14.00">User</text>
</g>
<!-- User&#45;&gt;Account -->
<g id="edge7" class="edge">
<title>User&#45;&gt;Account</title>
<path fill="none" stroke="#4320f6" d="M232.188,-303.23C227.183,-298.172 221.796,-292.84 216.688,-288 205.534,-277.432 192.863,-266.109 181.969,-256.575"/>
<ellipse fill="none" stroke="#4320f6" cx="235.048" cy="-306.142" rx="4.00002" ry="4.00002"/>
<polygon fill="#4320f6" stroke="#4320f6" points="181.942,-256.551 177.353,-246.591 178.17,-253.268 174.399,-249.986 174.399,-249.986 174.399,-249.986 178.17,-253.268 171.444,-253.38 181.942,-256.551 181.942,-256.551"/>
</g>
<!-- User&#45;&gt;Bank -->
<g id="edge8" class="edge">
<title>User&#45;&gt;Bank</title>
<path fill="none" stroke="#fa5603" d="M260.667,-298.711C264.253,-287.12 268.49,-273.424 272.141,-261.624"/>
<ellipse fill="none" stroke="#fa5603" cx="259.402" cy="-302.799" rx="4.00001" ry="4.00001"/>
<polygon fill="#fa5603" stroke="#fa5603" points="272.212,-261.396 279.466,-253.173 273.689,-256.619 275.167,-251.843 275.167,-251.843 275.167,-251.843 273.689,-256.619 270.868,-250.513 272.212,-261.396 272.212,-261.396"/>
</g>
<!-- User&#45;&gt;Bill -->
<g id="edge9" class="edge">
<title>User&#45;&gt;Bill</title>
<path fill="none" stroke="#c2b9f5" d="M247.685,-296.465C242.38,-266.74 234.048,-220.051 228.729,-190.246"/>
<polygon fill="#c2b9f5" stroke="#c2b9f5" points="247.716,-296.644 245.043,-307.279 248.595,-301.567 249.473,-306.489 249.473,-306.489 249.473,-306.489 248.595,-301.567 253.903,-305.698 247.716,-296.644 247.716,-296.644"/>
<polygon fill="#c2b9f5" stroke="#c2b9f5" points="228.673,-189.936 231.346,-179.301 227.795,-185.014 226.916,-180.092 226.916,-180.092 226.916,-180.092 227.795,-185.014 222.486,-180.883 228.673,-189.936 228.673,-189.936"/>
</g>
<!-- User&#45;&gt;Transaction -->
<g id="edge10" class="edge">
<title>User&#45;&gt;Transaction</title>
<path fill="none" stroke="#c3f252" d="M274.553,-301.916C292.711,-282.932 315.992,-257.964 318.688,-252 327.458,-232.6 329.748,-208.54 329.959,-190.179"/>
<polygon fill="#c3f252" stroke="#c3f252" points="274.334,-302.144 264.162,-306.239 270.871,-305.75 267.408,-309.356 267.408,-309.356 267.408,-309.356 270.871,-305.75 270.653,-312.474 274.334,-302.144 274.334,-302.144"/>
<polygon fill="#c3f252" stroke="#c3f252" points="329.959,-190.105 334.376,-180.068 329.918,-185.105 329.877,-180.105 329.877,-180.105 329.877,-180.105 329.918,-185.105 325.377,-180.142 329.959,-190.105 329.959,-190.105"/>
</g>
</g>
</svg>
