<?xml version="1.0" encoding="UTF-8" standalone="no"?>
<!DOCTYPE svg PUBLIC "-//W3C//DTD SVG 1.1//EN"
 "http://www.w3.org/Graphics/SVG/1.1/DTD/svg11.dtd">
<!-- Generated by graphviz version 2.39.20160302.1709 (20160302.1709)
 -->
<!-- Title: models_diagram Pages: 1 -->
<svg width="952pt" height="1133pt"
 viewBox="0.00 0.00 951.55 1133.00" xmlns="http://www.w3.org/2000/svg" xmlns:xlink="http://www.w3.org/1999/xlink">
<g id="graph0" class="graph" transform="scale(1 1) rotate(0) translate(4 1129)">
<title>models_diagram</title>
<polygon fill="transparent" stroke="transparent" points="-4,4 -4,-1129 947.55,-1129 947.55,4 -4,4"/>
<!-- _diagram_info -->
<g id="node1" class="node">
<title>_diagram_info</title>
<text text-anchor="start" x="8" y="-963.6" font-family="Times,serif" font-size="13.00">Models diagram</text>
<text text-anchor="start" x="8" y="-950.6" font-family="Times,serif" font-size="13.00">Date: Mar 15 2016 &#45; 13:12</text>
<text text-anchor="start" x="8" y="-937.6" font-family="Times,serif" font-size="13.00">Migration version: 20150917160245</text>
<text text-anchor="start" x="8" y="-924.6" font-family="Times,serif" font-size="13.00">Generated by RailRoady 1.4.2</text>
<text text-anchor="start" x="8" y="-911.6" font-family="Times,serif" font-size="13.00">http://railroady.prestonlee.com</text>
</g>
<!-- Account -->
<g id="node2" class="node">
<title>Account</title>
<path fill="none" stroke="black" d="M44.8254,-523.5C44.8254,-523.5 268.55,-523.5 268.55,-523.5 274.55,-523.5 280.55,-529.5 280.55,-535.5 280.55,-535.5 280.55,-709.5 280.55,-709.5 280.55,-715.5 274.55,-721.5 268.55,-721.5 268.55,-721.5 44.8254,-721.5 44.8254,-721.5 38.8254,-721.5 32.8254,-715.5 32.8254,-709.5 32.8254,-709.5 32.8254,-535.5 32.8254,-535.5 32.8254,-529.5 38.8254,-523.5 44.8254,-523.5"/>
<text text-anchor="middle" x="156.688" y="-706.3" font-family="Times,serif" font-size="14.00">Account</text>
<polyline fill="none" stroke="black" points="32.8254,-699.5 280.55,-699.5 "/>
<text text-anchor="start" x="40.8254" y="-684.3" font-family="Times,serif" font-size="14.00">id :integer</text>
<text text-anchor="start" x="40.8254" y="-670.3" font-family="Times,serif" font-size="14.00">name :character varying(255)</text>
<text text-anchor="start" x="40.8254" y="-656.3" font-family="Times,serif" font-size="14.00">phone :character varying(255)</text>
<text text-anchor="start" x="40.8254" y="-642.3" font-family="Times,serif" font-size="14.00">address :character varying(255)</text>
<text text-anchor="start" x="40.8254" y="-628.3" font-family="Times,serif" font-size="14.00">account_number :character varying(255)</text>
<text text-anchor="start" x="40.8254" y="-614.3" font-family="Times,serif" font-size="14.00">website :character varying(255)</text>
<text text-anchor="start" x="40.8254" y="-600.3" font-family="Times,serif" font-size="14.00">username :character varying(255)</text>
<text text-anchor="start" x="40.8254" y="-586.3" font-family="Times,serif" font-size="14.00">password :character varying(255)</text>
<text text-anchor="start" x="40.8254" y="-572.3" font-family="Times,serif" font-size="14.00">user_id :integer</text>
<text text-anchor="start" x="40.8254" y="-558.3" font-family="Times,serif" font-size="14.00">created_at :timestamp without time zone</text>
<text text-anchor="start" x="40.8254" y="-544.3" font-family="Times,serif" font-size="14.00">updated_at :timestamp without time zone</text>
<text text-anchor="start" x="40.8254" y="-530.3" font-family="Times,serif" font-size="14.00">color :character varying(255)</text>
</g>
<!-- Bill -->
<g id="node4" class="node">
<title>Bill</title>
<path fill="none" stroke="black" d="M196.825,-330.5C196.825,-330.5 420.55,-330.5 420.55,-330.5 426.55,-330.5 432.55,-336.5 432.55,-342.5 432.55,-342.5 432.55,-474.5 432.55,-474.5 432.55,-480.5 426.55,-486.5 420.55,-486.5 420.55,-486.5 196.825,-486.5 196.825,-486.5 190.825,-486.5 184.825,-480.5 184.825,-474.5 184.825,-474.5 184.825,-342.5 184.825,-342.5 184.825,-336.5 190.825,-330.5 196.825,-330.5"/>
<text text-anchor="middle" x="308.688" y="-471.3" font-family="Times,serif" font-size="14.00">Bill</text>
<polyline fill="none" stroke="black" points="184.825,-464.5 432.55,-464.5 "/>
<text text-anchor="start" x="192.825" y="-449.3" font-family="Times,serif" font-size="14.00">id :integer</text>
<text text-anchor="start" x="192.825" y="-435.3" font-family="Times,serif" font-size="14.00">bill_type :character varying(255)</text>
<text text-anchor="start" x="192.825" y="-421.3" font-family="Times,serif" font-size="14.00">summary :character varying(255)</text>
<text text-anchor="start" x="192.825" y="-407.3" font-family="Times,serif" font-size="14.00">amount :integer</text>
<text text-anchor="start" x="192.825" y="-393.3" font-family="Times,serif" font-size="14.00">account_id :integer</text>
<text text-anchor="start" x="192.825" y="-379.3" font-family="Times,serif" font-size="14.00">created_at :timestamp without time zone</text>
<text text-anchor="start" x="192.825" y="-365.3" font-family="Times,serif" font-size="14.00">updated_at :timestamp without time zone</text>
<text text-anchor="start" x="192.825" y="-351.3" font-family="Times,serif" font-size="14.00">bank_id :integer</text>
<text text-anchor="start" x="192.825" y="-337.3" font-family="Times,serif" font-size="14.00">color :character varying(255)</text>
</g>
<!-- Account&#45;&gt;Bill -->
<g id="edge1" class="edge">
<title>Account&#45;&gt;Bill</title>
<path fill="none" stroke="#b2cf77" d="M231.863,-516.661C237.049,-509.36 242.24,-502.051 247.34,-494.871"/>
<ellipse fill="none" stroke="#b2cf77" cx="229.442" cy="-520.07" rx="4.00002" ry="4.00002"/>
<polygon fill="#b2cf77" stroke="#b2cf77" points="247.488,-494.663 256.947,-489.116 250.383,-490.587 253.278,-486.51 253.278,-486.51 253.278,-486.51 250.383,-490.587 249.61,-483.905 247.488,-494.663 247.488,-494.663"/>
</g>
<!-- Bank -->
<g id="node3" class="node">
<title>Bank</title>
<path fill="none" stroke="black" d="M348.825,-565.5C348.825,-565.5 572.55,-565.5 572.55,-565.5 578.55,-565.5 584.55,-571.5 584.55,-577.5 584.55,-577.5 584.55,-667.5 584.55,-667.5 584.55,-673.5 578.55,-679.5 572.55,-679.5 572.55,-679.5 348.825,-679.5 348.825,-679.5 342.825,-679.5 336.825,-673.5 336.825,-667.5 336.825,-667.5 336.825,-577.5 336.825,-577.5 336.825,-571.5 342.825,-565.5 348.825,-565.5"/>
<text text-anchor="middle" x="460.688" y="-664.3" font-family="Times,serif" font-size="14.00">Bank</text>
<polyline fill="none" stroke="black" points="336.825,-657.5 584.55,-657.5 "/>
<text text-anchor="start" x="344.825" y="-642.3" font-family="Times,serif" font-size="14.00">id :integer</text>
<text text-anchor="start" x="344.825" y="-628.3" font-family="Times,serif" font-size="14.00">name :character varying(255)</text>
<text text-anchor="start" x="344.825" y="-614.3" font-family="Times,serif" font-size="14.00">created_at :timestamp without time zone</text>
<text text-anchor="start" x="344.825" y="-600.3" font-family="Times,serif" font-size="14.00">updated_at :timestamp without time zone</text>
<text text-anchor="start" x="344.825" y="-586.3" font-family="Times,serif" font-size="14.00">user_id :integer</text>
<text text-anchor="start" x="344.825" y="-572.3" font-family="Times,serif" font-size="14.00">color :character varying(255)</text>
</g>
<!-- Bank&#45;&gt;Bill -->
<g id="edge3" class="edge">
<title>Bank&#45;&gt;Bill</title>
<path fill="none" stroke="#f67c38" d="M415.46,-558.824C401.264,-538.838 385.344,-516.424 370.218,-495.128"/>
<ellipse fill="none" stroke="#f67c38" cx="417.838" cy="-562.172" rx="4.00002" ry="4.00002"/>
<polygon fill="#f67c38" stroke="#f67c38" points="370.033,-494.868 367.911,-484.109 367.138,-490.792 364.243,-486.715 364.243,-486.715 364.243,-486.715 367.138,-490.792 360.574,-489.321 370.033,-494.868 370.033,-494.868"/>
</g>
<!-- Transaction -->
<g id="node9" class="node">
<title>Transaction</title>
<path fill="none" stroke="black" d="M490.877,-351.5C490.877,-351.5 676.498,-351.5 676.498,-351.5 682.498,-351.5 688.498,-357.5 688.498,-363.5 688.498,-363.5 688.498,-453.5 688.498,-453.5 688.498,-459.5 682.498,-465.5 676.498,-465.5 676.498,-465.5 490.877,-465.5 490.877,-465.5 484.877,-465.5 478.877,-459.5 478.877,-453.5 478.877,-453.5 478.877,-363.5 478.877,-363.5 478.877,-357.5 484.877,-351.5 490.877,-351.5"/>
<text text-anchor="middle" x="583.688" y="-450.3" font-family="Times,serif" font-size="14.00">Transaction</text>
<polyline fill="none" stroke="black" points="478.877,-443.5 688.498,-443.5 "/>
<text text-anchor="start" x="486.877" y="-428.3" font-family="Times,serif" font-size="14.00">id :integer</text>
<text text-anchor="start" x="486.877" y="-414.3" font-family="Times,serif" font-size="14.00">amount :integer</text>
<text text-anchor="start" x="486.877" y="-400.3" font-family="Times,serif" font-size="14.00">date :timestamp without time zone</text>
<text text-anchor="start" x="486.877" y="-386.3" font-family="Times,serif" font-size="14.00">summary :character varying(255)</text>
<text text-anchor="start" x="486.877" y="-372.3" font-family="Times,serif" font-size="14.00">bill_id :integer</text>
<text text-anchor="start" x="486.877" y="-358.3" font-family="Times,serif" font-size="14.00">bank_id :integer</text>
</g>
<!-- Bank&#45;&gt;Transaction -->
<g id="edge2" class="edge">
<title>Bank&#45;&gt;Transaction</title>
<path fill="none" stroke="#e47ac6" d="M497.498,-558.456C512.705,-531.998 530.328,-501.338 545.66,-474.661"/>
<ellipse fill="none" stroke="#e47ac6" cx="495.481" cy="-561.965" rx="4.00002" ry="4.00002"/>
<polygon fill="#e47ac6" stroke="#e47ac6" points="545.782,-474.449 554.667,-468.022 548.274,-470.114 550.765,-465.779 550.765,-465.779 550.765,-465.779 548.274,-470.114 546.864,-463.537 545.782,-474.449 545.782,-474.449"/>
</g>
<!-- Exclusion -->
<g id="node5" class="node">
<title>Exclusion</title>
<path fill="none" stroke="black" d="M196.825,-0.5C196.825,-0.5 420.55,-0.5 420.55,-0.5 426.55,-0.5 432.55,-6.5 432.55,-12.5 432.55,-12.5 432.55,-88.5 432.55,-88.5 432.55,-94.5 426.55,-100.5 420.55,-100.5 420.55,-100.5 196.825,-100.5 196.825,-100.5 190.825,-100.5 184.825,-94.5 184.825,-88.5 184.825,-88.5 184.825,-12.5 184.825,-12.5 184.825,-6.5 190.825,-0.5 196.825,-0.5"/>
<text text-anchor="middle" x="308.688" y="-85.3" font-family="Times,serif" font-size="14.00">Exclusion</text>
<polyline fill="none" stroke="black" points="184.825,-78.5 432.55,-78.5 "/>
<text text-anchor="start" x="192.825" y="-63.3" font-family="Times,serif" font-size="14.00">id :integer</text>
<text text-anchor="start" x="192.825" y="-49.3" font-family="Times,serif" font-size="14.00">date :timestamp without time zone</text>
<text text-anchor="start" x="192.825" y="-35.3" font-family="Times,serif" font-size="14.00">created_at :timestamp without time zone</text>
<text text-anchor="start" x="192.825" y="-21.3" font-family="Times,serif" font-size="14.00">updated_at :timestamp without time zone</text>
<text text-anchor="start" x="192.825" y="-7.3" font-family="Times,serif" font-size="14.00">bill_id :integer</text>
</g>
<!-- Bill&#45;&gt;Exclusion -->
<g id="edge5" class="edge">
<title>Bill&#45;&gt;Exclusion</title>
<path fill="none" stroke="#495505" d="M261.743,-322.874C258.06,-313.348 254.912,-303.611 252.688,-294 236.954,-226.019 232.917,-203.918 252.688,-137 255.463,-127.607 259.612,-118.275 264.422,-109.408"/>
<ellipse fill="none" stroke="#495505" cx="263.307" cy="-326.752" rx="4.00001" ry="4.00001"/>
<polygon fill="#495505" stroke="#495505" points="264.438,-109.379 273.325,-102.954 266.931,-105.045 269.424,-100.711 269.424,-100.711 269.424,-100.711 266.931,-105.045 265.523,-98.4669 264.438,-109.379 264.438,-109.379"/>
</g>
<!-- Recurrence -->
<g id="node8" class="node">
<title>Recurrence</title>
<path fill="none" stroke="black" d="M273.77,-137.5C273.77,-137.5 493.605,-137.5 493.605,-137.5 499.605,-137.5 505.605,-143.5 505.605,-149.5 505.605,-149.5 505.605,-281.5 505.605,-281.5 505.605,-287.5 499.605,-293.5 493.605,-293.5 493.605,-293.5 273.77,-293.5 273.77,-293.5 267.77,-293.5 261.77,-287.5 261.77,-281.5 261.77,-281.5 261.77,-149.5 261.77,-149.5 261.77,-143.5 267.77,-137.5 273.77,-137.5"/>
<text text-anchor="middle" x="383.688" y="-278.3" font-family="Times,serif" font-size="14.00">Recurrence</text>
<polyline fill="none" stroke="black" points="261.77,-271.5 505.605,-271.5 "/>
<text text-anchor="start" x="269.77" y="-256.3" font-family="Times,serif" font-size="14.00">id :integer</text>
<text text-anchor="start" x="269.77" y="-242.3" font-family="Times,serif" font-size="14.00">frequency :character varying(255)</text>
<text text-anchor="start" x="269.77" y="-228.3" font-family="Times,serif" font-size="14.00">expires_at :timestamp without time zone</text>
<text text-anchor="start" x="269.77" y="-214.3" font-family="Times,serif" font-size="14.00">interval :integer</text>
<text text-anchor="start" x="269.77" y="-200.3" font-family="Times,serif" font-size="14.00">bill_id :integer</text>
<text text-anchor="start" x="269.77" y="-186.3" font-family="Times,serif" font-size="14.00">active_at :timestamp without time zone</text>
<text text-anchor="start" x="269.77" y="-172.3" font-family="Times,serif" font-size="14.00">amount :integer</text>
<text text-anchor="start" x="269.77" y="-158.3" font-family="Times,serif" font-size="14.00">static_amount :boolean</text>
<text text-anchor="start" x="269.77" y="-144.3" font-family="Times,serif" font-size="14.00">note :character varying(255)</text>
</g>
<!-- Bill&#45;&gt;Recurrence -->
<g id="edge4" class="edge">
<title>Bill&#45;&gt;Recurrence</title>
<path fill="none" stroke="#6506f2" d="M342.083,-322.562C344.608,-316.065 347.157,-309.505 349.686,-302.999"/>
<ellipse fill="none" stroke="#6506f2" cx="340.534" cy="-326.549" rx="4.00001" ry="4.00001"/>
<polygon fill="#6506f2" stroke="#6506f2" points="349.747,-302.841 357.563,-295.15 351.558,-298.181 353.369,-293.52 353.369,-293.52 353.369,-293.52 351.558,-298.181 349.175,-291.89 349.747,-302.841 349.747,-302.841"/>
</g>
<!-- Logical::Payment -->
<g id="node6" class="node">
<title>Logical::Payment</title>
<polygon fill="none" stroke="black" points="561.922,-919.5 561.922,-963.5 677.453,-963.5 677.453,-919.5 561.922,-919.5"/>
<text text-anchor="middle" x="619.688" y="-948.3" font-family="Times,serif" font-size="14.00">Logical::Payment</text>
<polyline fill="none" stroke="black" points="561.922,-941.5 677.453,-941.5 "/>
<text text-anchor="middle" x="619.688" y="-926.3" font-family="Times,serif" font-size="14.00"> </text>
</g>
<!-- Message -->
<g id="node7" class="node">
<title>Message</title>
<path fill="none" stroke="black" d="M707.825,-877.5C707.825,-877.5 931.55,-877.5 931.55,-877.5 937.55,-877.5 943.55,-883.5 943.55,-889.5 943.55,-889.5 943.55,-993.5 943.55,-993.5 943.55,-999.5 937.55,-1005.5 931.55,-1005.5 931.55,-1005.5 707.825,-1005.5 707.825,-1005.5 701.825,-1005.5 695.825,-999.5 695.825,-993.5 695.825,-993.5 695.825,-889.5 695.825,-889.5 695.825,-883.5 701.825,-877.5 707.825,-877.5"/>
<text text-anchor="middle" x="819.688" y="-990.3" font-family="Times,serif" font-size="14.00">Message</text>
<polyline fill="none" stroke="black" points="695.825,-983.5 943.55,-983.5 "/>
<text text-anchor="start" x="703.825" y="-968.3" font-family="Times,serif" font-size="14.00">id :integer</text>
<text text-anchor="start" x="703.825" y="-954.3" font-family="Times,serif" font-size="14.00">to :character varying(255)</text>
<text text-anchor="start" x="703.825" y="-940.3" font-family="Times,serif" font-size="14.00">from :character varying(255)</text>
<text text-anchor="start" x="703.825" y="-926.3" font-family="Times,serif" font-size="14.00">subject :character varying(255)</text>
<text text-anchor="start" x="703.825" y="-912.3" font-family="Times,serif" font-size="14.00">body :character varying(255)</text>
<text text-anchor="start" x="703.825" y="-898.3" font-family="Times,serif" font-size="14.00">created_at :timestamp without time zone</text>
<text text-anchor="start" x="703.825" y="-884.3" font-family="Times,serif" font-size="14.00">updated_at :timestamp without time zone</text>
</g>
<!-- Recurrence&#45;&gt;Exclusion -->
<g id="edge6" class="edge">
<title>Recurrence&#45;&gt;Exclusion</title>
<path fill="none" stroke="#2cf076" d="M344.834,-130.021C341.761,-123.262 338.701,-116.529 335.735,-110.005"/>
<ellipse fill="none" stroke="#2cf076" cx="346.509" cy="-133.707" rx="4.00002" ry="4.00002"/>
<polygon fill="#2cf076" stroke="#2cf076" points="335.606,-109.72 335.564,-98.754 333.537,-105.168 331.468,-100.616 331.468,-100.616 331.468,-100.616 333.537,-105.168 327.371,-102.478 335.606,-109.72 335.606,-109.72"/>
</g>
<!-- User -->
<g id="node10" class="node">
<title>User</title>
<path fill="none" stroke="black" d="M237.053,-758.5C237.053,-758.5 532.323,-758.5 532.323,-758.5 538.323,-758.5 544.323,-764.5 544.323,-770.5 544.323,-770.5 544.323,-1112.5 544.323,-1112.5 544.323,-1118.5 538.323,-1124.5 532.323,-1124.5 532.323,-1124.5 237.053,-1124.5 237.053,-1124.5 231.053,-1124.5 225.053,-1118.5 225.053,-1112.5 225.053,-1112.5 225.053,-770.5 225.053,-770.5 225.053,-764.5 231.053,-758.5 237.053,-758.5"/>
<text text-anchor="middle" x="384.688" y="-1109.3" font-family="Times,serif" font-size="14.00">User</text>
<polyline fill="none" stroke="black" points="225.053,-1102.5 544.323,-1102.5 "/>
<text text-anchor="start" x="233.053" y="-1087.3" font-family="Times,serif" font-size="14.00">id :integer</text>
<text text-anchor="start" x="233.053" y="-1073.3" font-family="Times,serif" font-size="14.00">email :character varying(255)</text>
<text text-anchor="start" x="233.053" y="-1059.3" font-family="Times,serif" font-size="14.00">encrypted_password :character varying(255)</text>
<text text-anchor="start" x="233.053" y="-1045.3" font-family="Times,serif" font-size="14.00">reset_password_token :character varying(255)</text>
<text text-anchor="start" x="233.053" y="-1031.3" font-family="Times,serif" font-size="14.00">reset_password_sent_at :timestamp without time zone</text>
<text text-anchor="start" x="233.053" y="-1017.3" font-family="Times,serif" font-size="14.00">remember_created_at :timestamp without time zone</text>
<text text-anchor="start" x="233.053" y="-1003.3" font-family="Times,serif" font-size="14.00">sign_in_count :integer</text>
<text text-anchor="start" x="233.053" y="-989.3" font-family="Times,serif" font-size="14.00">current_sign_in_at :timestamp without time zone</text>
<text text-anchor="start" x="233.053" y="-975.3" font-family="Times,serif" font-size="14.00">last_sign_in_at :timestamp without time zone</text>
<text text-anchor="start" x="233.053" y="-961.3" font-family="Times,serif" font-size="14.00">current_sign_in_ip :inet</text>
<text text-anchor="start" x="233.053" y="-947.3" font-family="Times,serif" font-size="14.00">last_sign_in_ip :inet</text>
<text text-anchor="start" x="233.053" y="-933.3" font-family="Times,serif" font-size="14.00">created_at :timestamp without time zone</text>
<text text-anchor="start" x="233.053" y="-919.3" font-family="Times,serif" font-size="14.00">updated_at :timestamp without time zone</text>
<text text-anchor="start" x="233.053" y="-905.3" font-family="Times,serif" font-size="14.00">pushover_token :character varying(255)</text>
<text text-anchor="start" x="233.053" y="-891.3" font-family="Times,serif" font-size="14.00">invitation_token :character varying(255)</text>
<text text-anchor="start" x="233.053" y="-877.3" font-family="Times,serif" font-size="14.00">invitation_created_at :timestamp without time zone</text>
<text text-anchor="start" x="233.053" y="-863.3" font-family="Times,serif" font-size="14.00">invitation_sent_at :timestamp without time zone</text>
<text text-anchor="start" x="233.053" y="-849.3" font-family="Times,serif" font-size="14.00">invitation_accepted_at :timestamp without time zone</text>
<text text-anchor="start" x="233.053" y="-835.3" font-family="Times,serif" font-size="14.00">invitation_limit :integer</text>
<text text-anchor="start" x="233.053" y="-821.3" font-family="Times,serif" font-size="14.00">invited_by_id :integer</text>
<text text-anchor="start" x="233.053" y="-807.3" font-family="Times,serif" font-size="14.00">invited_by_type :character varying(255)</text>
<text text-anchor="start" x="233.053" y="-793.3" font-family="Times,serif" font-size="14.00">invitations_count :integer</text>
<text text-anchor="start" x="233.053" y="-779.3" font-family="Times,serif" font-size="14.00">public :boolean</text>
<text text-anchor="start" x="233.053" y="-765.3" font-family="Times,serif" font-size="14.00">authentication_token :character varying(255)</text>
</g>
<!-- User&#45;&gt;Account -->
<g id="edge7" class="edge">
<title>User&#45;&gt;Account</title>
<path fill="none" stroke="#f99b32" d="M248.911,-751.532C243.679,-744.212 238.511,-736.981 233.452,-729.903"/>
<ellipse fill="none" stroke="#f99b32" cx="251.385" cy="-754.993" rx="4.00002" ry="4.00002"/>
<polygon fill="#f99b32" stroke="#f99b32" points="233.382,-729.805 231.229,-719.053 230.475,-725.737 227.568,-721.67 227.568,-721.67 227.568,-721.67 230.475,-725.737 223.907,-724.286 233.382,-729.805 233.382,-729.805"/>
</g>
<!-- User&#45;&gt;Bank -->
<g id="edge8" class="edge">
<title>User&#45;&gt;Bank</title>
<path fill="none" stroke="#cf5d68" d="M430.247,-750.272C435.391,-728.679 440.343,-707.895 444.704,-689.589"/>
<ellipse fill="none" stroke="#cf5d68" cx="429.274" cy="-754.356" rx="4.00001" ry="4.00001"/>
<polygon fill="#cf5d68" stroke="#cf5d68" points="444.746,-689.413 451.441,-680.728 445.905,-684.549 447.064,-679.685 447.064,-679.685 447.064,-679.685 445.905,-684.549 442.686,-678.642 444.746,-689.413 444.746,-689.413"/>
</g>
<!-- User&#45;&gt;Bill -->
<g id="edge9" class="edge">
<title>User&#45;&gt;Bill</title>
<path fill="none" stroke="#7d11ee" d="M332.316,-748.219C330.612,-739.387 329.055,-730.617 327.688,-722 315.733,-646.627 311.171,-559.965 309.491,-496.887"/>
<polygon fill="#7d11ee" stroke="#7d11ee" points="332.353,-748.403 329.887,-759.088 333.327,-753.308 334.301,-758.212 334.301,-758.212 334.301,-758.212 333.327,-753.308 338.715,-757.335 332.353,-748.403 332.353,-748.403"/>
<polygon fill="#7d11ee" stroke="#7d11ee" points="309.484,-496.574 313.735,-486.466 309.36,-491.576 309.237,-486.577 309.237,-486.577 309.237,-486.577 309.36,-491.576 304.738,-486.688 309.484,-496.574 309.484,-496.574"/>
</g>
<!-- User&#45;&gt;Transaction -->
<g id="edge10" class="edge">
<title>User&#45;&gt;Transaction</title>
<path fill="none" stroke="#95ef71" d="M551.646,-759.022C551.993,-758.681 552.341,-758.34 552.688,-758 570.012,-741.032 583.686,-744.091 593.688,-722 629.363,-643.2 616.916,-541.489 602.33,-475.638"/>
<polygon fill="#95ef71" stroke="#95ef71" points="551.435,-759.23 541.16,-763.061 547.879,-762.746 544.323,-766.261 544.323,-766.261 544.323,-766.261 547.879,-762.746 547.487,-769.461 551.435,-759.23 551.435,-759.23"/>
<polygon fill="#95ef71" stroke="#95ef71" points="602.306,-475.536 604.459,-464.783 601.19,-470.662 600.073,-465.788 600.073,-465.788 600.073,-465.788 601.19,-470.662 595.687,-466.793 602.306,-475.536 602.306,-475.536"/>
</g>
</g>
</svg>
